<svg width="106" height="20" viewBox="0 0 106 20" fill="none" xmlns="http://www.w3.org/2000/svg">
<g clip-path="url(#clip0_6177_568)">
<path d="M102.318 15.685L99.358 11.3305L98.929 10.9444L94.9392 5.38867H97.7921L100.431 9.20689L100.838 9.57156L105.15 15.685H102.318ZM94.7461 15.685L98.9075 9.91477L100.28 11.6094L97.4918 15.685H94.7461ZM101.053 10.9015L99.6583 9.22835L102.232 5.38867H104.957L101.053 10.9015Z" fill="white"/>
<path d="M89.9134 15.8992C88.9124 15.8992 88.0043 15.6632 87.1892 15.1913C86.3741 14.7051 85.7234 14.0544 85.2372 13.2393C84.7653 12.4242 84.5293 11.5161 84.5293 10.515C84.5293 9.51402 84.7653 8.61309 85.2372 7.81226C85.7234 7.01144 86.3741 6.37507 87.1892 5.90315C88.0043 5.41694 88.9124 5.17383 89.9134 5.17383C90.9288 5.17383 91.844 5.40979 92.6591 5.8817C93.4742 6.35362 94.1178 6.99714 94.5897 7.81226C95.0759 8.61309 95.319 9.51402 95.319 10.515C95.319 11.5161 95.0759 12.4242 94.5897 13.2393C94.1178 14.0544 93.4742 14.7051 92.6591 15.1913C91.844 15.6632 90.9288 15.8992 89.9134 15.8992ZM89.9134 13.6254C90.4997 13.6254 91.0146 13.4967 91.4579 13.2393C91.9155 12.9676 92.2659 12.5958 92.509 12.1239C92.7664 11.6519 92.8951 11.1157 92.8951 10.515C92.8951 9.91443 92.7664 9.38531 92.509 8.9277C92.2515 8.47008 91.9012 8.11257 91.4579 7.85516C91.0146 7.58346 90.4997 7.4476 89.9134 7.4476C89.3414 7.4476 88.8266 7.58346 88.369 7.85516C87.9257 8.11257 87.5753 8.47008 87.3179 8.9277C87.0748 9.38531 86.9532 9.91443 86.9532 10.515C86.9532 11.1157 87.0748 11.6519 87.3179 12.1239C87.5753 12.5958 87.9257 12.9676 88.369 13.2393C88.8266 13.4967 89.3414 13.6254 89.9134 13.6254Z" fill="white"/>
<path d="M79.4746 15.6844V4.03667C79.4746 3.25014 79.6462 2.55657 79.9894 1.95595C80.3469 1.35533 80.8332 0.883418 81.4481 0.540207C82.0773 0.196996 82.7995 0.0253906 83.6146 0.0253906C84.2438 0.0253906 84.7801 0.132644 85.2234 0.347151C85.6667 0.561657 86.0814 0.869117 86.4675 1.26953L84.9445 2.79253C84.7729 2.62092 84.587 2.48507 84.3868 2.38497C84.1866 2.28486 83.9292 2.23481 83.6146 2.23481C83.0426 2.23481 82.5993 2.39212 82.2847 2.70673C81.9843 3.00704 81.8342 3.4432 81.8342 4.01522V15.6844H79.4746ZM79.987 7.53313V5.38806H84.9445V7.53313H79.987Z" fill="white"/>
<path d="M72.5224 15.7923L68.125 5.38867H70.7205L73.7236 13.0251H72.9729L76.1476 5.38867H78.7645L73.981 15.7923H72.5224ZM69.4549 19.9751L72.6511 13.3898L73.981 15.7923L72.0719 19.9751H69.4549Z" fill="white"/>
<path d="M63.4171 15.8992C62.6306 15.8992 61.9299 15.7347 61.315 15.4058C60.7 15.0626 60.2138 14.5978 59.8563 14.0115C59.5131 13.4252 59.3415 12.7602 59.3415 12.0166V9.0564C59.3415 8.31278 59.5202 7.64781 59.8778 7.06149C60.2353 6.47517 60.7215 6.01756 61.3364 5.68864C61.9513 5.34543 62.6449 5.17383 63.4171 5.17383C64.3467 5.17383 65.1832 5.41694 65.9269 5.90315C66.6848 6.37507 67.2782 7.01859 67.7073 7.83371C68.1506 8.63454 68.3722 9.54262 68.3722 10.558C68.3722 11.559 68.1506 12.4671 67.7073 13.2822C67.2782 14.083 66.6848 14.7194 65.9269 15.1913C65.1832 15.6632 64.3467 15.8992 63.4171 15.8992ZM63.031 13.6683C63.603 13.6683 64.1035 13.5396 64.5326 13.2822C64.9759 13.0105 65.3191 12.6387 65.5622 12.1668C65.8196 11.6948 65.9483 11.1514 65.9483 10.5365C65.9483 9.92158 65.8196 9.37816 65.5622 8.90625C65.3191 8.43433 64.9759 8.06967 64.5326 7.81226C64.1035 7.54055 63.603 7.4047 63.031 7.4047C62.459 7.4047 61.9513 7.54055 61.508 7.81226C61.0647 8.06967 60.7215 8.43433 60.4784 8.90625C60.2353 9.37816 60.1137 9.92158 60.1137 10.5365C60.1137 11.1514 60.2353 11.6948 60.4784 12.1668C60.7215 12.6387 61.0647 13.0105 61.508 13.2822C61.9513 13.5396 62.459 13.6683 63.031 13.6683ZM57.9043 19.9748V5.38833H60.2639V8.15547L59.8563 10.6652L60.2639 13.1535V19.9748H57.9043Z" fill="white"/>
<path d="M51.9679 15.8992C51.1814 15.8992 50.4807 15.7347 49.8657 15.4058C49.2508 15.0626 48.7646 14.5978 48.4071 14.0115C48.0639 13.4252 47.8923 12.7602 47.8923 12.0166V9.0564C47.8923 8.31278 48.071 7.64781 48.4285 7.06149C48.7861 6.47517 49.2723 6.01756 49.8872 5.68864C50.5021 5.34543 51.1957 5.17383 51.9679 5.17383C52.8974 5.17383 53.734 5.41694 54.4776 5.90315C55.2356 6.37507 55.829 7.01859 56.258 7.83371C56.7014 8.63454 56.923 9.54262 56.923 10.558C56.923 11.559 56.7014 12.4671 56.258 13.2822C55.829 14.083 55.2356 14.7194 54.4776 15.1913C53.734 15.6632 52.8974 15.8992 51.9679 15.8992ZM51.5818 13.6683C52.1538 13.6683 52.6543 13.5396 53.0833 13.2822C53.5267 13.0105 53.8699 12.6387 54.113 12.1668C54.3704 11.6948 54.4991 11.1514 54.4991 10.5365C54.4991 9.92158 54.3704 9.37816 54.113 8.90625C53.8699 8.43433 53.5267 8.06967 53.0833 7.81226C52.6543 7.54055 52.1538 7.4047 51.5818 7.4047C51.0098 7.4047 50.5021 7.54055 50.0588 7.81226C49.6155 8.06967 49.2723 8.43433 49.0292 8.90625C48.7861 9.37816 48.6645 9.92158 48.6645 10.5365C48.6645 11.1514 48.7861 11.6948 49.0292 12.1668C49.2723 12.6387 49.6155 13.0105 50.0588 13.2822C50.5021 13.5396 51.0098 13.6683 51.5818 13.6683ZM46.4551 19.9748V5.38833H48.8147V8.15547L48.4071 10.6652L48.8147 13.1535V19.9748H46.4551Z" fill="white"/>
<path d="M39.3164 15.8992C38.3869 15.8992 37.5432 15.6632 36.7853 15.1913C36.0416 14.7194 35.4482 14.083 35.0048 13.2822C34.5758 12.4671 34.3613 11.559 34.3613 10.558C34.3613 9.54262 34.5758 8.63454 35.0048 7.83371C35.4482 7.01859 36.0416 6.37507 36.7853 5.90315C37.5432 5.41694 38.3869 5.17383 39.3164 5.17383C40.103 5.17383 40.7965 5.34543 41.3972 5.68864C42.0121 6.01755 42.4983 6.47517 42.8558 7.06149C43.2133 7.64781 43.3921 8.31278 43.3921 9.0564V12.0166C43.3921 12.7602 43.2133 13.4252 42.8558 14.0115C42.5126 14.5978 42.0335 15.0626 41.4186 15.4058C40.8037 15.7347 40.103 15.8992 39.3164 15.8992ZM39.7025 13.6683C40.5749 13.6683 41.2756 13.3751 41.8047 12.7888C42.3481 12.2025 42.6198 11.4517 42.6198 10.5365C42.6198 9.92158 42.4983 9.37816 42.2552 8.90625C42.0121 8.43433 41.6689 8.06967 41.2255 7.81226C40.7965 7.54055 40.2889 7.4047 39.7025 7.4047C39.1305 7.4047 38.6229 7.54055 38.1796 7.81226C37.7505 8.06967 37.4073 8.43433 37.1499 8.90625C36.9068 9.37816 36.7853 9.92158 36.7853 10.5365C36.7853 11.1514 36.9068 11.6948 37.1499 12.1668C37.4073 12.6387 37.7505 13.0105 38.1796 13.2822C38.6229 13.5396 39.1305 13.6683 39.7025 13.6683ZM42.4697 15.6847V12.9175L42.8773 10.4078L42.4697 7.91952V5.38833H44.8293V15.6847H42.4697Z" fill="white"/>
<path d="M31.2409 15.6847V9.74289C31.2409 9.05647 31.0192 8.4916 30.5759 8.04829C30.1469 7.60497 29.5892 7.38331 28.9027 7.38331C28.4451 7.38331 28.0376 7.48342 27.6801 7.68362C27.3225 7.88383 27.0437 8.16269 26.8435 8.5202C26.6433 8.87771 26.5432 9.28528 26.5432 9.74289L25.6208 9.22807C25.6208 8.44155 25.7924 7.74798 26.1356 7.14736C26.4788 6.53244 26.9507 6.05337 27.5514 5.71016C28.1663 5.35265 28.8527 5.17389 29.6106 5.17389C30.3828 5.17389 31.0693 5.3455 31.6699 5.68871C32.2705 6.03192 32.7424 6.51099 33.0856 7.12591C33.4288 7.72652 33.6004 8.42725 33.6004 9.22807V15.6847H31.2409ZM24.1836 15.6847V0.240234H26.5432V15.6847H24.1836Z" fill="white"/>
<g clip-path="url(#clip1_6177_568)">
<path d="M2.58324 8.08719C2.98711 8.08719 3.38336 7.97289 3.72627 7.75444L7.85387 5.13564L2.05745 0.911511C1.20145 0.286656 0 0.898811 0 1.95548V6.39043L1.07699 7.46233C1.48086 7.86366 2.01427 8.08465 2.58578 8.08465L2.58324 8.08719Z" fill="#FF5A00"/>
<path d="M0.452131 12.2698L6.38318 17.3626L8.39491 19.0899C8.86482 19.4937 9.55318 19.5064 10.0383 19.1229L18.4866 12.4603C18.7965 12.2139 18.9793 11.8405 18.9793 11.4443V1.86316C18.9793 0.824275 17.8135 0.20704 16.9549 0.793794L9.17725 6.10253L4.54163 9.04392C3.93964 9.42747 3.2589 9.61289 2.58324 9.61289C1.64088 9.61289 0.706137 9.24966 0 8.54607V11.2893C0 11.6678 0.165104 12.026 0.452131 12.2698Z" fill="#FF5A00"/>
</g>
</g>
<defs>
<clipPath id="clip0_6177_568">
<rect width="105.149" height="20" fill="white"/>
</clipPath>
<clipPath id="clip1_6177_568">
<rect width="18.9793" height="18.8346" fill="white" transform="translate(0 0.566406)"/>
</clipPath>
</defs>
</svg>
